<svg xmlns="http://www.w3.org/2000/svg" width="1200" height="780" viewBox="0 0 1200 780" role="img" aria-label="DreamFi analytics preview">
  <defs>
    <linearGradient id="bg" x1="0" x2="1" y1="0" y2="1">
      <stop offset="0" stop-color="#0e0219"/>
      <stop offset="0.58" stop-color="#340863"/>
      <stop offset="1" stop-color="#064357"/>
    </linearGradient>
    <linearGradient id="panel" x1="0" x2="1" y1="0" y2="1">
      <stop offset="0" stop-color="#ffffff" stop-opacity="0.96"/>
      <stop offset="1" stop-color="#ebe6f0" stop-opacity="0.92"/>
    </linearGradient>
  </defs>
  <rect width="1200" height="780" rx="32" fill="url(#bg)"/>
  <circle cx="1060" cy="105" r="118" fill="#ecb602" opacity="0.14"/>
  <circle cx="160" cy="675" r="170" fill="#cfb8e5" opacity="0.12"/>
  <rect x="120" y="110" width="960" height="560" rx="28" fill="url(#panel)"/>
  <rect x="174" y="168" width="218" height="34" rx="17" fill="#340863" opacity="0.12"/>
  <rect x="174" y="232" width="342" height="28" rx="14" fill="#0e0219" opacity="0.18"/>
  <rect x="174" y="286" width="250" height="132" rx="18" fill="#ffffff"/>
  <rect x="462" y="286" width="250" height="132" rx="18" fill="#ffffff"/>
  <rect x="750" y="286" width="250" height="132" rx="18" fill="#ffffff"/>
  <path d="M204 383c44-70 86-30 128-82 24-30 39-35 62-18" fill="none" stroke="#5e0eb2" stroke-width="12" stroke-linecap="round"/>
  <path d="M492 382c35-34 61-50 91-50 35 0 55-28 93-28" fill="none" stroke="#ecb602" stroke-width="12" stroke-linecap="round"/>
  <path d="M782 374h186" stroke="#064357" stroke-width="13" stroke-linecap="round"/>
  <path d="M782 335h134" stroke="#5e0eb2" stroke-width="13" stroke-linecap="round"/>
  <path d="M782 296h164" stroke="#ecb602" stroke-width="13" stroke-linecap="round"/>
  <rect x="174" y="462" width="826" height="122" rx="18" fill="#0e0219"/>
  <path d="M220 545c88-63 166-7 254-62 76-47 132 20 210-26 76-44 153-12 246-62" fill="none" stroke="#ecb602" stroke-width="10" stroke-linecap="round"/>
  <text x="174" y="641" font-family="Work Sans, Arial, sans-serif" font-size="32" font-weight="700" fill="#ebe6f0">DreamFi Product Analytics</text>
</svg>
