<svg xmlns="http://www.w3.org/2000/svg" width="1200" height="630" viewBox="0 0 1200 630" role="img" aria-label="DreamFi Product Analytics">
  <defs>
    <linearGradient id="bg" x1="0" x2="1" y1="0" y2="1">
      <stop offset="0" stop-color="#0e0219"/>
      <stop offset="0.6" stop-color="#340863"/>
      <stop offset="1" stop-color="#064357"/>
    </linearGradient>
  </defs>
  <rect width="1200" height="630" fill="url(#bg)"/>
  <circle cx="1020" cy="96" r="118" fill="#ecb602" opacity="0.18"/>
  <circle cx="980" cy="530" r="190" fill="#cfb8e5" opacity="0.13"/>
  <circle cx="120" cy="540" r="148" fill="#5e0eb2" opacity="0.32"/>
  <rect x="88" y="82" width="92" height="92" rx="22" fill="#0e0219" stroke="#ecb602" stroke-width="4"/>
  <path d="M106 143c21 9 58 9 76-21" fill="none" stroke="#ecb602" stroke-width="7" stroke-linecap="round"/>
  <text x="134" y="136" text-anchor="middle" font-family="Work Sans, Arial, sans-serif" font-size="40" font-weight="700" fill="#ecb602">D</text>
  <text x="88" y="274" font-family="Work Sans, Arial, sans-serif" font-size="74" font-weight="700" fill="#ffffff">DreamFi</text>
  <text x="88" y="350" font-family="Work Sans, Arial, sans-serif" font-size="52" font-weight="600" fill="#ecb602">Product Analytics</text>
  <text x="92" y="418" font-family="Work Sans, Arial, sans-serif" font-size="28" font-weight="500" fill="#ebe6f0">Member journeys, friction,</text>
  <text x="92" y="458" font-family="Work Sans, Arial, sans-serif" font-size="28" font-weight="500" fill="#ebe6f0">and conversion health in real time.</text>
  <rect x="690" y="140" width="378" height="310" rx="28" fill="#ffffff" opacity="0.96"/>
  <rect x="738" y="194" width="188" height="20" rx="10" fill="#340863" opacity="0.18"/>
  <rect x="738" y="250" width="104" height="104" rx="18" fill="#ebe6f0"/>
  <rect x="866" y="250" width="104" height="104" rx="18" fill="#ebe6f0"/>
  <path d="M760 324c31-46 55-18 86-54" fill="none" stroke="#5e0eb2" stroke-width="10" stroke-linecap="round"/>
  <path d="M890 321c25-21 38-37 60-37" fill="none" stroke="#ecb602" stroke-width="10" stroke-linecap="round"/>
  <rect x="738" y="386" width="282" height="20" rx="10" fill="#0e0219" opacity="0.18"/>
</svg>
